<svg width="31" height="31" viewBox="0 0 31 31" fill="none" xmlns="http://www.w3.org/2000/svg">
<path d="M14.9984 0.000137391C14.7003 0.00479475 14.4163 0.127588 14.2086 0.341547C14.001 0.555505 13.8867 0.843132 13.891 1.14125V3.39125C13.8889 3.54033 13.9165 3.68833 13.972 3.82667C14.0276 3.96501 14.1102 4.09092 14.2148 4.19709C14.3195 4.30326 14.4442 4.38756 14.5818 4.4451C14.7193 4.50264 14.8669 4.53227 15.016 4.53227C15.1651 4.53227 15.3127 4.50264 15.4503 4.4451C15.5878 4.38756 15.7125 4.30326 15.8172 4.19709C15.9219 4.09092 16.0044 3.96501 16.06 3.82667C16.1156 3.68833 16.1431 3.54033 16.141 3.39125V1.14125C16.1432 0.990676 16.1151 0.841201 16.0584 0.701682C16.0017 0.562164 15.9176 0.435442 15.8111 0.329028C15.7045 0.222613 15.5777 0.138671 15.4381 0.0821762C15.2985 0.0256816 15.149 -0.00221582 14.9984 0.000137391ZM5.19278 4.06947C4.96889 4.06953 4.75011 4.13638 4.56442 4.26147C4.37874 4.38657 4.2346 4.56422 4.15044 4.77169C4.06629 4.97917 4.04595 5.20703 4.09203 5.42613C4.1381 5.64523 4.2485 5.8456 4.40909 6.0016L5.99991 7.59242C6.21106 7.80357 6.49744 7.92219 6.79605 7.92219C7.09466 7.92219 7.38104 7.80357 7.59219 7.59242C7.80334 7.38127 7.92197 7.09489 7.92197 6.79628C7.92197 6.49767 7.80334 6.21129 7.59219 6.00014L6.00137 4.40932C5.89622 4.30142 5.77046 4.21573 5.63156 4.15736C5.49266 4.09898 5.34345 4.06909 5.19278 4.06947ZM24.8041 4.06947C24.5119 4.07799 24.2346 4.19987 24.0307 4.40932L22.4399 6.00014C22.2287 6.21129 22.1101 6.49767 22.1101 6.79628C22.1101 7.09489 22.2287 7.38127 22.4399 7.59242C22.651 7.80357 22.9374 7.92219 23.236 7.92219C23.5346 7.92219 23.821 7.80357 24.0321 7.59242L25.623 6.0016C25.7859 5.84354 25.8972 5.6399 25.9423 5.41741C25.9873 5.19492 25.9641 4.96401 25.8755 4.755C25.7869 4.54599 25.6372 4.36866 25.446 4.24631C25.2547 4.12397 25.031 4.06232 24.8041 4.06947ZM15.016 6.76625C10.473 6.76625 6.76602 10.4732 6.76602 15.0163C6.76602 19.5593 10.473 23.2663 15.016 23.2663C19.559 23.2663 23.266 19.5593 23.266 15.0163C23.266 10.4732 19.559 6.76625 15.016 6.76625ZM15.016 9.01625C18.3431 9.01625 21.016 11.6892 21.016 15.0163C21.016 18.3433 18.3431 21.0163 15.016 21.0163C11.689 21.0163 9.01602 18.3433 9.01602 15.0163C9.01602 11.6892 11.689 9.01625 15.016 9.01625ZM1.14102 13.8913C0.991947 13.8891 0.843939 13.9167 0.705599 13.9723C0.56726 14.0279 0.441349 14.1104 0.335183 14.2151C0.229017 14.3197 0.144714 14.4445 0.0871729 14.582C0.0296317 14.7196 0 14.8672 0 15.0163C0 15.1653 0.0296317 15.3129 0.0871729 15.4505C0.144714 15.588 0.229017 15.7128 0.335183 15.8174C0.441349 15.9221 0.56726 16.0046 0.705599 16.0602C0.843939 16.1158 0.991947 16.1434 1.14102 16.1413H3.39102C3.5401 16.1434 3.68811 16.1158 3.82645 16.0602C3.96479 16.0046 4.0907 15.9221 4.19686 15.8174C4.30303 15.7128 4.38733 15.588 4.44487 15.4505C4.50241 15.3129 4.53205 15.1653 4.53205 15.0163C4.53205 14.8672 4.50241 14.7196 4.44487 14.582C4.38733 14.4445 4.30303 14.3197 4.19686 14.2151C4.0907 14.1104 3.96479 14.0279 3.82645 13.9723C3.68811 13.9167 3.5401 13.8891 3.39102 13.8913H1.14102ZM26.641 13.8913C26.4919 13.8891 26.3439 13.9167 26.2056 13.9723C26.0673 14.0279 25.9413 14.1104 25.8352 14.2151C25.729 14.3197 25.6447 14.4445 25.5872 14.582C25.5296 14.7196 25.5 14.8672 25.5 15.0163C25.5 15.1653 25.5296 15.3129 25.5872 15.4505C25.6447 15.588 25.729 15.7128 25.8352 15.8174C25.9413 15.9221 26.0673 16.0046 26.2056 16.0602C26.3439 16.1158 26.4919 16.1434 26.641 16.1413H28.891C29.0401 16.1434 29.1881 16.1158 29.3264 16.0602C29.4648 16.0046 29.5907 15.9221 29.6969 15.8174C29.803 15.7128 29.8873 15.588 29.9449 15.4505C30.0024 15.3129 30.032 15.1653 30.032 15.0163C30.032 14.8672 30.0024 14.7196 29.9449 14.582C29.8873 14.4445 29.803 14.3197 29.6969 14.2151C29.5907 14.1104 29.4648 14.0279 29.3264 13.9723C29.1881 13.9167 29.0401 13.8891 28.891 13.8913H26.641ZM6.77335 22.1002C6.48118 22.1088 6.20379 22.2306 5.99991 22.4401L4.40909 24.0309C4.3045 24.1354 4.22153 24.2596 4.16492 24.3962C4.10831 24.5328 4.07916 24.6792 4.07915 24.8271C4.07913 24.975 4.10825 25.1214 4.16483 25.258C4.22141 25.3947 4.30435 25.5188 4.40892 25.6234C4.51348 25.7279 4.63762 25.8109 4.77425 25.8674C4.91087 25.924 5.0573 25.9531 5.20518 25.9531C5.35306 25.9531 5.49949 25.924 5.6361 25.8674C5.77271 25.8107 5.89683 25.7278 6.00137 25.6232L7.59219 24.0324C7.75513 23.8743 7.86645 23.6707 7.91152 23.4482C7.95659 23.2257 7.9333 22.9948 7.84472 22.7858C7.75615 22.5767 7.60641 22.3994 7.4152 22.2771C7.22399 22.1547 7.00024 22.0931 6.77335 22.1002ZM23.2235 22.1002C22.9997 22.1003 22.7809 22.1671 22.5952 22.2922C22.4095 22.4173 22.2654 22.595 22.1812 22.8025C22.0971 23.0099 22.0767 23.2378 22.1228 23.4569C22.1689 23.676 22.2793 23.8764 22.4399 24.0324L24.0307 25.6232C24.1352 25.7277 24.2593 25.8107 24.3959 25.8673C24.5325 25.9238 24.679 25.953 24.8268 25.953C24.9747 25.953 25.1211 25.9238 25.2577 25.8673C25.3943 25.8107 25.5184 25.7277 25.623 25.6232C25.7275 25.5186 25.8104 25.3945 25.867 25.2579C25.9236 25.1213 25.9527 24.9749 25.9527 24.827C25.9527 24.6792 25.9236 24.5328 25.867 24.3962C25.8104 24.2596 25.7275 24.1354 25.623 24.0309L24.0321 22.4401C23.927 22.3322 23.8012 22.2465 23.6623 22.1881C23.5234 22.1297 23.3742 22.0999 23.2235 22.1002ZM14.9984 25.5001C14.7003 25.5048 14.4163 25.6276 14.2086 25.8415C14.001 26.0555 13.8867 26.3431 13.891 26.6413V28.8913C13.8889 29.0403 13.9165 29.1883 13.972 29.3267C14.0276 29.465 14.1102 29.5909 14.2148 29.6971C14.3195 29.8033 14.4442 29.8876 14.5818 29.9451C14.7193 30.0026 14.8669 30.0323 15.016 30.0323C15.1651 30.0323 15.3127 30.0026 15.4503 29.9451C15.5878 29.8876 15.7125 29.8033 15.8172 29.6971C15.9219 29.5909 16.0044 29.465 16.06 29.3267C16.1156 29.1883 16.1431 29.0403 16.141 28.8913V26.6413C16.1432 26.4907 16.1151 26.3412 16.0584 26.2017C16.0017 26.0622 15.9176 25.9354 15.8111 25.829C15.7045 25.7226 15.5777 25.6387 15.4381 25.5822C15.2985 25.5257 15.149 25.4978 14.9984 25.5001Z" fill="white"/>
</svg>
